<svg width="93" height="25" viewBox="0 0 93 25" fill="none" xmlns="http://www.w3.org/2000/svg">
<path d="M12.2817 22.6989C17.8046 22.6989 22.2817 18.2217 22.2817 12.6989C22.2817 7.176 17.8046 2.69885 12.2817 2.69885C6.75889 2.69885 2.28174 7.176 2.28174 12.6989C2.28174 18.2217 6.75889 22.6989 12.2817 22.6989Z" stroke="#22C076" stroke-width="2" stroke-linecap="round" stroke-linejoin="round"/>
<path d="M12.2817 16.6989L16.2817 12.6989L12.2817 8.69885" stroke="#22C076" stroke-width="2" stroke-linecap="round" stroke-linejoin="round"/>
<path d="M8.28174 12.6989H16.2817" stroke="#22C076" stroke-width="2" stroke-linecap="round" stroke-linejoin="round"/>
<path d="M34.0795 11H33.0227C32.9602 10.696 32.8509 10.429 32.6946 10.1989C32.5412 9.96875 32.3537 9.77557 32.1321 9.61932C31.9134 9.46023 31.6705 9.34091 31.4034 9.26136C31.1364 9.18182 30.858 9.14205 30.5682 9.14205C30.0398 9.14205 29.5611 9.27557 29.1321 9.54261C28.706 9.80966 28.3665 10.2031 28.1136 10.723C27.8636 11.2429 27.7386 11.8807 27.7386 12.6364C27.7386 13.392 27.8636 14.0298 28.1136 14.5497C28.3665 15.0696 28.706 15.4631 29.1321 15.7301C29.5611 15.9972 30.0398 16.1307 30.5682 16.1307C30.858 16.1307 31.1364 16.0909 31.4034 16.0114C31.6705 15.9318 31.9134 15.8139 32.1321 15.6577C32.3537 15.4986 32.5412 15.304 32.6946 15.0739C32.8509 14.8409 32.9602 14.5739 33.0227 14.2727H34.0795C34 14.7187 33.8551 15.1179 33.6449 15.4702C33.4347 15.8224 33.1733 16.1222 32.8608 16.3693C32.5483 16.6136 32.1974 16.7997 31.8082 16.9276C31.4219 17.0554 31.0085 17.1193 30.5682 17.1193C29.8239 17.1193 29.1619 16.9375 28.5824 16.5739C28.0028 16.2102 27.5469 15.6932 27.2145 15.0227C26.8821 14.3523 26.7159 13.5568 26.7159 12.6364C26.7159 11.7159 26.8821 10.9205 27.2145 10.25C27.5469 9.57955 28.0028 9.0625 28.5824 8.69886C29.1619 8.33523 29.8239 8.15341 30.5682 8.15341C31.0085 8.15341 31.4219 8.21733 31.8082 8.34517C32.1974 8.47301 32.5483 8.66051 32.8608 8.90767C33.1733 9.15199 33.4347 9.45028 33.6449 9.80256C33.8551 10.152 34 10.5511 34.0795 11ZM35.6509 17V10.4545H36.6225V11.4432H36.6907C36.81 11.1193 37.0259 10.8565 37.3384 10.6548C37.6509 10.4531 38.0032 10.3523 38.3952 10.3523C38.4691 10.3523 38.5614 10.3537 38.6722 10.3565C38.783 10.3594 38.8668 10.3636 38.9237 10.3693V11.392C38.8896 11.3835 38.8114 11.3707 38.6893 11.3537C38.57 11.3338 38.4435 11.3239 38.31 11.3239C37.9918 11.3239 37.7077 11.3906 37.4577 11.5241C37.2106 11.6548 37.0146 11.8366 36.8697 12.0696C36.7276 12.2997 36.6566 12.5625 36.6566 12.858V17H35.6509ZM42.6609 17.1364C42.0302 17.1364 41.4862 16.9972 41.0288 16.7188C40.5742 16.4375 40.2234 16.0455 39.9762 15.5426C39.7319 15.0369 39.6097 14.4489 39.6097 13.7784C39.6097 13.108 39.7319 12.517 39.9762 12.0057C40.2234 11.4915 40.5671 11.0909 41.0075 10.804C41.4506 10.5142 41.9677 10.3693 42.5586 10.3693C42.8995 10.3693 43.2362 10.4261 43.5685 10.5398C43.9009 10.6534 44.2035 10.8381 44.4762 11.0938C44.7489 11.3466 44.9663 11.6818 45.1282 12.0994C45.2901 12.517 45.3711 13.0312 45.3711 13.642V14.0682H40.3256V13.1989H44.3484C44.3484 12.8295 44.2745 12.5 44.1268 12.2102C43.9819 11.9205 43.7745 11.6918 43.5046 11.5241C43.2376 11.3565 42.9222 11.2727 42.5586 11.2727C42.158 11.2727 41.8114 11.3722 41.5188 11.571C41.229 11.767 41.006 12.0227 40.8498 12.3381C40.6935 12.6534 40.6154 12.9915 40.6154 13.3523V13.9318C40.6154 14.4261 40.7006 14.8452 40.8711 15.1889C41.0444 15.5298 41.2844 15.7898 41.5913 15.9688C41.8981 16.1449 42.2546 16.233 42.6609 16.233C42.9251 16.233 43.1637 16.196 43.3768 16.1222C43.5927 16.0455 43.7788 15.9318 43.935 15.7812C44.0913 15.6278 44.212 15.4375 44.2972 15.2102L45.2688 15.483C45.1665 15.8125 44.9947 16.1023 44.7532 16.3523C44.5117 16.5994 44.2134 16.7926 43.8583 16.9318C43.5032 17.0682 43.104 17.1364 42.6609 17.1364ZM51.5373 11.9205L50.6339 12.1761C50.5771 12.0256 50.4933 11.8793 50.3825 11.7372C50.2745 11.5923 50.1268 11.473 49.9393 11.3793C49.7518 11.2855 49.5117 11.2386 49.2191 11.2386C48.8185 11.2386 48.4847 11.331 48.2177 11.5156C47.9535 11.6974 47.8214 11.929 47.8214 12.2102C47.8214 12.4602 47.9123 12.6577 48.0941 12.8026C48.2759 12.9474 48.56 13.0682 48.9464 13.1648L49.918 13.4034C50.5032 13.5455 50.9393 13.7628 51.2262 14.0554C51.5131 14.3452 51.6566 14.7187 51.6566 15.1761C51.6566 15.5511 51.5487 15.8864 51.3327 16.1818C51.1197 16.4773 50.8214 16.7102 50.4379 16.8807C50.0543 17.0511 49.6083 17.1364 49.0998 17.1364C48.4322 17.1364 47.8796 16.9915 47.4421 16.7017C47.0046 16.4119 46.7276 15.9886 46.6112 15.4318L47.5657 15.1932C47.6566 15.5455 47.8285 15.8097 48.0813 15.9858C48.337 16.1619 48.6708 16.25 49.0827 16.25C49.5515 16.25 49.9237 16.1506 50.1992 15.9517C50.4776 15.75 50.6168 15.5085 50.6168 15.2273C50.6168 15 50.5373 14.8097 50.3782 14.6562C50.2191 14.5 49.9748 14.3835 49.6452 14.3068L48.5543 14.0511C47.9549 13.9091 47.5146 13.6889 47.2333 13.3906C46.9549 13.0895 46.8157 12.7131 46.8157 12.2614C46.8157 11.892 46.9194 11.5653 47.1268 11.2812C47.337 10.9972 47.6225 10.7741 47.9833 10.6122C48.3469 10.4503 48.7589 10.3693 49.2191 10.3693C49.8668 10.3693 50.3754 10.5114 50.7447 10.7955C51.1168 11.0795 51.381 11.4545 51.5373 11.9205ZM55.8295 17.1364C55.2159 17.1364 54.6875 16.9915 54.2443 16.7017C53.8011 16.4119 53.4602 16.0128 53.2216 15.5043C52.983 14.9957 52.8636 14.4148 52.8636 13.7614C52.8636 13.0966 52.9858 12.5099 53.2301 12.0014C53.4773 11.4901 53.821 11.0909 54.2614 10.804C54.7045 10.5142 55.2216 10.3693 55.8125 10.3693C56.2727 10.3693 56.6875 10.4545 57.0568 10.625C57.4261 10.7955 57.7287 11.0341 57.9645 11.3409C58.2003 11.6477 58.3466 12.0057 58.4034 12.4148H57.3977C57.321 12.1165 57.1506 11.8523 56.8864 11.6222C56.625 11.3892 56.2727 11.2727 55.8295 11.2727C55.4375 11.2727 55.0938 11.375 54.7983 11.5795C54.5057 11.7812 54.277 12.0668 54.1122 12.4361C53.9503 12.8026 53.8693 13.233 53.8693 13.7273C53.8693 14.233 53.9489 14.6733 54.108 15.0483C54.2699 15.4233 54.4972 15.7145 54.7898 15.9219C55.0852 16.1293 55.4318 16.233 55.8295 16.233C56.0909 16.233 56.3281 16.1875 56.5412 16.0966C56.7543 16.0057 56.9347 15.875 57.0824 15.7045C57.2301 15.5341 57.3352 15.3295 57.3977 15.0909H58.4034C58.3466 15.4773 58.206 15.8253 57.9815 16.1349C57.7599 16.4418 57.4659 16.6861 57.0994 16.8679C56.7358 17.0469 56.3125 17.1364 55.8295 17.1364ZM62.6179 17.1364C61.9872 17.1364 61.4432 16.9972 60.9858 16.7188C60.5312 16.4375 60.1804 16.0455 59.9332 15.5426C59.6889 15.0369 59.5668 14.4489 59.5668 13.7784C59.5668 13.108 59.6889 12.517 59.9332 12.0057C60.1804 11.4915 60.5241 11.0909 60.9645 10.804C61.4077 10.5142 61.9247 10.3693 62.5156 10.3693C62.8565 10.3693 63.1932 10.4261 63.5256 10.5398C63.858 10.6534 64.1605 10.8381 64.4332 11.0938C64.706 11.3466 64.9233 11.6818 65.0852 12.0994C65.2472 12.517 65.3281 13.0312 65.3281 13.642V14.0682H60.2827V13.1989H64.3054C64.3054 12.8295 64.2315 12.5 64.0838 12.2102C63.9389 11.9205 63.7315 11.6918 63.4616 11.5241C63.1946 11.3565 62.8793 11.2727 62.5156 11.2727C62.1151 11.2727 61.7685 11.3722 61.4759 11.571C61.1861 11.767 60.9631 12.0227 60.8068 12.3381C60.6506 12.6534 60.5724 12.9915 60.5724 13.3523V13.9318C60.5724 14.4261 60.6577 14.8452 60.8281 15.1889C61.0014 15.5298 61.2415 15.7898 61.5483 15.9688C61.8551 16.1449 62.2116 16.233 62.6179 16.233C62.8821 16.233 63.1207 16.196 63.3338 16.1222C63.5497 16.0455 63.7358 15.9318 63.892 15.7812C64.0483 15.6278 64.169 15.4375 64.2543 15.2102L65.2259 15.483C65.1236 15.8125 64.9517 16.1023 64.7102 16.3523C64.4688 16.5994 64.1705 16.7926 63.8153 16.9318C63.4602 17.0682 63.0611 17.1364 62.6179 17.1364ZM67.8636 13.0625V17H66.858V10.4545H67.8295V11.4773H67.9148C68.0682 11.1449 68.3011 10.8778 68.6136 10.6761C68.9261 10.4716 69.3295 10.3693 69.8239 10.3693C70.267 10.3693 70.6548 10.4602 70.9872 10.642C71.3196 10.821 71.5781 11.0938 71.7628 11.4602C71.9474 11.8239 72.0398 12.2841 72.0398 12.8409V17H71.0341V12.9091C71.0341 12.3949 70.9006 11.9943 70.6335 11.7074C70.3665 11.4176 70 11.2727 69.5341 11.2727C69.2131 11.2727 68.9261 11.3423 68.6733 11.4815C68.4233 11.6207 68.2259 11.8239 68.081 12.0909C67.9361 12.358 67.8636 12.6818 67.8636 13.0625ZM76.7241 10.4545V11.3068H73.332V10.4545H76.7241ZM74.3207 8.88636H75.3263V15.125C75.3263 15.4091 75.3675 15.6222 75.4499 15.7642C75.5352 15.9034 75.6431 15.9972 75.7738 16.0455C75.9073 16.0909 76.0479 16.1136 76.1957 16.1136C76.3065 16.1136 76.3974 16.108 76.4684 16.0966C76.5394 16.0824 76.5962 16.071 76.6388 16.0625L76.8434 16.9659C76.7752 16.9915 76.68 17.017 76.5579 17.0426C76.4357 17.071 76.2809 17.0852 76.0934 17.0852C75.8093 17.0852 75.5309 17.0241 75.2582 16.902C74.9883 16.7798 74.7638 16.5938 74.5849 16.3438C74.4087 16.0938 74.3207 15.7784 74.3207 15.3977V8.88636ZM80.9109 17.1364C80.2802 17.1364 79.7362 16.9972 79.2788 16.7188C78.8242 16.4375 78.4734 16.0455 78.2262 15.5426C77.9819 15.0369 77.8597 14.4489 77.8597 13.7784C77.8597 13.108 77.9819 12.517 78.2262 12.0057C78.4734 11.4915 78.8171 11.0909 79.2575 10.804C79.7006 10.5142 80.2177 10.3693 80.8086 10.3693C81.1495 10.3693 81.4862 10.4261 81.8185 10.5398C82.1509 10.6534 82.4535 10.8381 82.7262 11.0938C82.9989 11.3466 83.2163 11.6818 83.3782 12.0994C83.5401 12.517 83.6211 13.0312 83.6211 13.642V14.0682H78.5756V13.1989H82.5984C82.5984 12.8295 82.5245 12.5 82.3768 12.2102C82.2319 11.9205 82.0245 11.6918 81.7546 11.5241C81.4876 11.3565 81.1722 11.2727 80.8086 11.2727C80.408 11.2727 80.0614 11.3722 79.7688 11.571C79.479 11.767 79.256 12.0227 79.0998 12.3381C78.9435 12.6534 78.8654 12.9915 78.8654 13.3523V13.9318C78.8654 14.4261 78.9506 14.8452 79.1211 15.1889C79.2944 15.5298 79.5344 15.7898 79.8413 15.9688C80.1481 16.1449 80.5046 16.233 80.9109 16.233C81.1751 16.233 81.4137 16.196 81.6268 16.1222C81.8427 16.0455 82.0288 15.9318 82.185 15.7812C82.3413 15.6278 82.462 15.4375 82.5472 15.2102L83.5188 15.483C83.4165 15.8125 83.2447 16.1023 83.0032 16.3523C82.7617 16.5994 82.4634 16.7926 82.1083 16.9318C81.7532 17.0682 81.354 17.1364 80.9109 17.1364Z" fill="#EAE5E5"/>
</svg>
